# File created by Blade
# Date/Time:  Wed Apr 08 14:47:20 2015
# Frame Rate: 120.000 fps
#------------------------------------------------------
:FULLY-SPECIFIED
:DEGREES
3516
root 5.798336 32.676020 -1.866811 4.295292 2.407363 -2.211313
Spine -4.697892 -7.833627 1.355953
Head 17.184406 -0.485903 -8.983917
LeftShoulder -7.709464 38.220594 18.059001
LeftArm 83.657396 7.394283 -81.118208
LeftForeArm -24.546163 -0.000000 132.505620
LeftHand 3.633746 -0.000000 -1.239514
LeftHandThumb1 -26.253704 0.000000 33.147579
RightShoulder -1.379408 -16.295329 -13.718913
RightArm 20.134327 -31.614038 79.755485
RightForeArm 2.483069 -0.000000 20.512516
RightHand 5.966554 -0.000000 5.029696
RightHandThumb1 -24.326973 -0.000000 -32.862282
LeftUpLeg 0.033998 -2.988824 1.427976
LeftLeg 1.507799 -0.000000 -0.000000
LeftFoot -8.656224 7.214422 -14.727587
LeftToeBase -0.587710 -0.000000 0.000000
RightUpLeg 0.396573 5.633443 2.954433
RightLeg 0.069679 -0.000000 -0.000000
RightFoot -8.233720 -21.907808 5.862433
RightToeBase -2.477894 -0.000000 0.000000
3517
root 5.798315 32.676065 -1.864419 4.250656 2.466862 -2.239336
Spine -4.597391 -7.881173 1.383970
Head 17.156441 -0.351407 -9.047037
LeftShoulder -7.614228 38.052488 18.246954
LeftArm 83.836917 7.356630 -80.975437
LeftForeArm -24.987639 -0.000000 132.479929
LeftHand 3.871814 -0.000000 -1.256102
LeftHandThumb1 -26.253704 0.000000 33.147579
RightShoulder -1.341790 -16.312084 -13.700039
RightArm 20.080327 -31.574927 79.799903
RightForeArm 2.436960 -0.000000 20.457907
RightHand 6.151619 -0.000000 5.631677
RightHandThumb1 -24.326973 -0.000000 -32.862282
LeftUpLeg 0.079689 -3.023326 1.464322
LeftLeg 1.498202 -0.000000 -0.000000
LeftFoot -8.635442 7.166374 -14.744111
LeftToeBase -0.640118 -0.000000 0.000000
RightUpLeg 0.385251 5.462611 2.984361
RightLeg 0.199532 -0.000000 -0.000000
RightFoot -8.306232 -21.763809 5.898886
RightToeBase -2.434444 -0.000000 0.000000
3518
root 5.798360 32.675279 -1.857821 4.168939 2.529339 -2.228878
Spine -4.471754 -7.846642 1.314067
Head 17.193266 -0.297464 -8.980077
LeftShoulder -7.381160 37.893902 18.562155
LeftArm 84.019751 7.344876 -80.856224
LeftForeArm -25.350270 0.000000 132.472493
LeftHand 4.016971 -0.000000 -1.165100
LeftHandThumb1 -26.253704 0.000000 33.147579
RightShoulder -1.390672 -16.368398 -13.587301
RightArm 20.071491 -31.544401 79.774868
RightForeArm 2.449620 0.000000 20.364027
RightHand 6.061939 0.000000 5.442235
RightHandThumb1 -24.326973 -0.000000 -32.862282
LeftUpLeg 0.171028 -3.061449 1.461100
LeftLeg 1.488050 -0.000000 -0.000000
LeftFoot -8.615514 7.113693 -14.753515
LeftToeBase -0.681599 -0.000000 0.000000
RightUpLeg 0.470593 5.467912 2.981681
RightLeg 0.231684 -0.000000 -0.000000
RightFoot -8.359358 -21.788185 5.969160
RightToeBase -2.456909 -0.000000 0.000000
3519
root 5.798025 32.673166 -1.851499 4.060140 2.581119 -2.238751
Spine -4.294220 -7.884476 1.304310
Head 17.107834 -0.190553 -9.037993
LeftShoulder -7.302196 37.754892 18.735339
LeftArm 84.156732 7.306958 -80.846922
LeftForeArm -25.778979 -0.000000 132.479449
LeftHand 4.252517 -0.000000 -1.128799
LeftHandThumb1 -26.253704 0.000000 33.147579
RightShoulder -1.393498 -16.384634 -13.528108
RightArm 20.058985 -31.478455 79.784882
RightForeArm 2.492193 -0.000000 20.284265
RightHand 5.980361 -0.000000 5.035951
RightHandThumb1 -24.326973 -0.000000 -32.862282
LeftUpLeg 0.290412 -3.122888 1.475493
LeftLeg 1.480787 -0.000000 -0.000000
LeftFoot -8.610353 7.080076 -14.783957
LeftToeBase -0.752491 -0.000000 0.000000
RightUpLeg 0.584973 5.443477 3.003215
RightLeg 0.252894 -0.000000 -0.000000
RightFoot -8.401077 -21.779491 6.003006
RightToeBase -2.450833 -0.000000 0.000000
3520
root 5.797515 32.670335 -1.846176 3.973298 2.623127 -2.249233
Spine -4.139826 -7.888831 1.282249
Head 17.011770 -0.111689 -9.054472
LeftShoulder -7.185820 37.589856 18.930331
LeftArm 84.243450 7.274580 -80.863551
LeftForeArm -26.117520 -0.000000 132.531038
LeftHand 4.383971 -0.000000 -0.978155
LeftHandThumb1 -26.253704 0.000000 33.147579
RightShoulder -1.426693 -16.419774 -13.450295
RightArm 20.051495 -31.423227 79.775278
RightForeArm 2.431429 -0.000000 20.248183
RightHand 5.873682 0.000000 4.907792
RightHandThumb1 -24.326973 -0.000000 -32.862282
LeftUpLeg 0.369825 -3.133668 1.486384
LeftLeg 1.505275 -0.000000 -0.000000
LeftFoot -8.633736 7.041932 -14.737097
LeftToeBase -0.742348 -0.000000 0.000000
RightUpLeg 0.663264 5.394235 3.023438
RightLeg 0.296317 -0.000000 -0.000000
RightFoot -8.440664 -21.762113 6.005429
RightToeBase -2.514848 -0.000000 0.000000
3521
root 5.798142 32.667559 -1.841238 3.891277 2.657796 -2.259177
Spine -3.987912 -7.905063 1.271544
Head 16.888908 0.000325 -9.088072
LeftShoulder -7.128480 37.511426 19.056680
LeftArm 84.398171 7.242966 -80.883764
LeftForeArm -26.506044 -0.000000 132.578824
LeftHand 4.579414 -0.000000 -0.720002
LeftHandThumb1 -26.253704 0.000000 33.147579
RightShoulder -1.452246 -16.467474 -13.367448
RightArm 20.117019 -31.402900 79.720670
RightForeArm 2.459556 -0.000000 20.145151
RightHand 5.895029 -0.000000 4.841760
RightHandThumb1 -24.326973 -0.000000 -32.862282
LeftUpLeg 0.445389 -3.178277 1.494451
LeftLeg 1.530086 -0.000000 -0.000000
LeftFoot -8.651327 7.030862 -14.728116
LeftToeBase -0.859837 -0.000000 0.000000
RightUpLeg 0.740169 5.350783 3.041765
RightLeg 0.324836 -0.000000 -0.000000
RightFoot -8.465948 -21.736847 5.994730
RightToeBase -2.546060 -0.000000 0.000000
